HIERARCHY
ROOT reference
{
  OFFSET 0 0 0
  CHANNELS 6 Xposition Yposition Zposition Zrotation Xrotation Yrotation
  JOINT Hips
  {
    OFFSET 387.421 88.6843 214.036
    CHANNELS 3 Zrotation Xrotation Yrotation
    JOINT RightUpLeg
    {
      OFFSET -9.26407 -1.54033 -0.0169218
      CHANNELS 3 Zrotation Xrotation Yrotation
      JOINT RightLeg
      {
        OFFSET 0.0262756 -41.889 0.0389421
        CHANNELS 3 Zrotation Xrotation Yrotation
        JOINT RightFoot
        {
          OFFSET -0.025595 -42.7244 0.117519
          CHANNELS 3 Zrotation Xrotation Yrotation
          End Site
          {
            OFFSET 0 -7.69 17.5
          }
        }
      }
    }
    JOINT LeftUpLeg
    {
      OFFSET 9.28488 -1.63184 0.00456132
      CHANNELS 3 Zrotation Xrotation Yrotation
      JOINT LeftLeg
      {
        OFFSET -0.00133996 -41.8929 0.0117795
        CHANNELS 3 Zrotation Xrotation Yrotation
        JOINT LeftFoot
        {
          OFFSET 0.253805 -40.8902 0.809143
          CHANNELS 3 Zrotation Xrotation Yrotation
          End Site
          {
            OFFSET 0 -7.69 17.5
          }
        }
      }
    }
    JOINT Spine
    {
      OFFSET 0.04218 14.2944 0.0529257
      CHANNELS 3 Zrotation Xrotation Yrotation
      JOINT Spine1
      {
        OFFSET 0.022284 9.72228 0.00997239
        CHANNELS 3 Zrotation Xrotation Yrotation
        JOINT Spine2
        {
          OFFSET 0.0397412 10.1199 -0.0103674
          CHANNELS 3 Zrotation Xrotation Yrotation
          JOINT Spine3
          {
            OFFSET 0.0389473 9.71765 -0.00772733
            CHANNELS 3 Zrotation Xrotation Yrotation
            JOINT Neck
            {
              OFFSET 0.0437972 10.3765 0.0320322
              CHANNELS 3 Zrotation Xrotation Yrotation
              JOINT Head
              {
                OFFSET 0.0431994 9.46781 0.0291763
                CHANNELS 3 Zrotation Xrotation Yrotation
                End Site
                {
                  OFFSET 0 15.95 0
                }
              }
            }
            JOINT RightShoulder
            {
              OFFSET -3.17206 6.93005 0.0018626
              CHANNELS 3 Zrotation Xrotation Yrotation
              JOINT RightArm
              {
                OFFSET -12.781 0.0116363 0.0199633
                CHANNELS 3 Zrotation Xrotation Yrotation
                JOINT RightForeArm
                {
                  OFFSET -26.5135 -0.0113607 0.0486864
                  CHANNELS 3 Zrotation Xrotation Yrotation
                  JOINT RightHand
                  {
                    OFFSET -25.9857 -0.0984063 0.163753
                    CHANNELS 3 Zrotation Xrotation Yrotation
                    JOINT RightHandThumb1
                    {
                      OFFSET -2.48905 0.190105 3.12053
                      CHANNELS 3 Zrotation Xrotation Yrotation
                      JOINT RightHandThumb2
                      {
                        OFFSET -3.68274 0 0
                        CHANNELS 3 Zrotation Xrotation Yrotation
                        JOINT RightHandThumb3
                        {
                          OFFSET -2.55832 0 0
                          CHANNELS 3 Zrotation Xrotation Yrotation
                          End Site
                          {
                            OFFSET -2.194 0 0
                          }
                        }
                      }
                    }
                    JOINT RightInHandIndex
                    {
                      OFFSET -3.22368 0.508421 1.97842
                      CHANNELS 3 Zrotation Xrotation Yrotation
                      JOINT RightHandIndex1
                      {
                        OFFSET -5.21684 -0.091368 0.999158
                        CHANNELS 3 Zrotation Xrotation Yrotation
                        JOINT RightHandIndex2
                        {
                          OFFSET -3.61937 0 0
                          CHANNELS 3 Zrotation Xrotation Yrotation
                          JOINT RightHandIndex3
                          {
                            OFFSET -2.0521 0 0
                            CHANNELS 3 Zrotation Xrotation Yrotation
                            End Site
                            {
                              OFFSET -1.805 0 0
                            }
                          }
                        }
                      }
                    }
                    JOINT RightInHandMiddle
                    {
                      OFFSET -3.38211 0.517263 0.756737
                      CHANNELS 3 Zrotation Xrotation Yrotation
                      JOINT RightHandMiddle1
                      {
                        OFFSET -5.17411 -0.084 0.313895
                        CHANNELS 3 Zrotation Xrotation Yrotation
                        JOINT RightHandMiddle2
                        {
                          OFFSET -3.94947 0 0
                          CHANNELS 3 Zrotation Xrotation Yrotation
                          JOINT RightHandMiddle3
                          {
                            OFFSET -2.47579 0 0
                            CHANNELS 3 Zrotation Xrotation Yrotation
                            End Site
                            {
                              OFFSET -1.975 0 0
                            }
                          }
                        }
                      }
                    }
                    JOINT RightInHandRing
                    {
                      OFFSET -3.36516 0.537895 -0.128947
                      CHANNELS 3 Zrotation Xrotation Yrotation
                      JOINT RightHandRing1
                      {
                        OFFSET -4.63474 -0.022105 -0.478947
                        CHANNELS 3 Zrotation Xrotation Yrotation
                        JOINT RightHandRing2
                        {
                          OFFSET -3.44238 0 0
                          CHANNELS 3 Zrotation Xrotation Yrotation
                          JOINT RightHandRing3
                          {
                            OFFSET -2.3881 0 0
                            CHANNELS 3 Zrotation Xrotation Yrotation
                            End Site
                            {
                              OFFSET -1.857 0 0
                            }
                          }
                        }
                      }
                    }
                    JOINT RightInHandPinky
                    {
                      OFFSET -3.16105 0.469368 -1.20179
                      CHANNELS 3 Zrotation Xrotation Yrotation
                      JOINT RightHandPinky1
                      {
                        OFFSET -4.14105 -0.022105 -1.09053
                        CHANNELS 3 Zrotation Xrotation Yrotation
                        JOINT RightHandPinky2
                        {
                          OFFSET -2.75653 0 0
                          CHANNELS 3 Zrotation Xrotation Yrotation
                          JOINT RightHandPinky3
                          {
                            OFFSET -1.74189 0 0
                            CHANNELS 3 Zrotation Xrotation Yrotation
                            End Site
                            {
                              OFFSET -1.645 0 0
                            }
                          }
                        }
                      }
                    }
                  }
                }
              }
            }
            JOINT LeftShoulder
            {
              OFFSET 3.23848 6.90919 -0.0119143
              CHANNELS 3 Zrotation Xrotation Yrotation
              JOINT LeftArm
              {
                OFFSET 12.8241 -0.0554782 -0.0520121
                CHANNELS 3 Zrotation Xrotation Yrotation
                JOINT LeftForeArm
                {
                  OFFSET 26.4865 -0.0658343 -0.0244543
                  CHANNELS 3 Zrotation Xrotation Yrotation
                  JOINT LeftHand
                  {
                    OFFSET 25.985 -0.0475988 -0.0124738
                    CHANNELS 3 Zrotation Xrotation Yrotation
                    JOINT LeftHandThumb1
                    {
                      OFFSET 2.48905 0.190105 3.12053
                      CHANNELS 3 Zrotation Xrotation Yrotation
                      JOINT LeftHandThumb2
                      {
                        OFFSET 3.68274 0 0
                        CHANNELS 3 Zrotation Xrotation Yrotation
                        JOINT LeftHandThumb3
                        {
                          OFFSET 2.55832 0 0
                          CHANNELS 3 Zrotation Xrotation Yrotation
                          End Site
                          {
                            OFFSET 2.194 0 0
                          }
                        }
                      }
                    }
                    JOINT LeftInHandIndex
                    {
                      OFFSET 3.22368 0.508421 1.97842
                      CHANNELS 3 Zrotation Xrotation Yrotation
                      JOINT LeftHandIndex1
                      {
                        OFFSET 5.21684 -0.091368 0.999158
                        CHANNELS 3 Zrotation Xrotation Yrotation
                        JOINT LeftHandIndex2
                        {
                          OFFSET 3.61937 0 0
                          CHANNELS 3 Zrotation Xrotation Yrotation
                          JOINT LeftHandIndex3
                          {
                            OFFSET 2.0521 0 0
                            CHANNELS 3 Zrotation Xrotation Yrotation
                            End Site
                            {
                              OFFSET 1.805 0 0
                            }
                          }
                        }
                      }
                    }
                    JOINT LeftInHandMiddle
                    {
                      OFFSET 3.38211 0.517263 0.756737
                      CHANNELS 3 Zrotation Xrotation Yrotation
                      JOINT LeftHandMiddle1
                      {
                        OFFSET 5.17411 -0.084 0.313895
                        CHANNELS 3 Zrotation Xrotation Yrotation
                        JOINT LeftHandMiddle2
                        {
                          OFFSET 3.94947 0 0
                          CHANNELS 3 Zrotation Xrotation Yrotation
                          JOINT LeftHandMiddle3
                          {
                            OFFSET 2.47579 0 0
                            CHANNELS 3 Zrotation Xrotation Yrotation
                            End Site
                            {
                              OFFSET 1.975 0 0
                            }
                          }
                        }
                      }
                    }
                    JOINT LeftInHandRing
                    {
                      OFFSET 3.36516 0.537895 -0.128947
                      CHANNELS 3 Zrotation Xrotation Yrotation
                      JOINT LeftHandRing1
                      {
                        OFFSET 4.63474 -0.022105 -0.478947
                        CHANNELS 3 Zrotation Xrotation Yrotation
                        JOINT LeftHandRing2
                        {
                          OFFSET 3.44238 0 0
                          CHANNELS 3 Zrotation Xrotation Yrotation
                          JOINT LeftHandRing3
                          {
                            OFFSET 2.3881 0 0
                            CHANNELS 3 Zrotation Xrotation Yrotation
                            End Site
                            {
                              OFFSET 1.857 0 0
                            }
                          }
                        }
                      }
                    }
                    JOINT LeftInHandPinky
                    {
                      OFFSET 3.16105 0.469368 -1.20179
                      CHANNELS 3 Zrotation Xrotation Yrotation
                      JOINT LeftHandPinky1
                      {
                        OFFSET 4.14105 -0.022105 -1.09053
                        CHANNELS 3 Zrotation Xrotation Yrotation
                        JOINT LeftHandPinky2
                        {
                          OFFSET 2.75653 0 0
                          CHANNELS 3 Zrotation Xrotation Yrotation
                          JOINT LeftHandPinky3
                          {
                            OFFSET 1.74189 0 0
                            CHANNELS 3 Zrotation Xrotation Yrotation
                            End Site
                            {
                              OFFSET 1.645 0 0
                            }
                          }
                        }
                      }
                    }
                  }
                }
              }
            }
          }
        }
      }
    }
  }
}
MOTION
Frames: 2
Frame Time: 0.00833333
3.150000000000000000e+03 0.000000000000000000e+00 0.000000000000000000e+00 0.000000000000000000e+00 0.000000000000000000e+00 0.000000000000000000e+00 2.887439999999999785e+01 1.602939999999999898e+01 -6.636459999999999582e+01 -1.346669999999999945e+01 -6.231750000000000256e+01 -1.370270000000000010e+01 -1.189280000000000115e+00 2.887689999999999912e+01 -1.719950000000000045e+01 7.056110000000001214e+00 2.093910000000000160e+00 2.536430000000000007e+01 8.913889999999994984e+00 -5.579009999999999536e+01 -2.552260000000000417e+00 7.468719999999997583e+00 3.229679999999999751e+01 -3.391170000000002460e+00 -1.158440000000000225e+01 -9.187340000000002505e+00 -1.855799999999999628e+01 -8.838070000000000093e+00 1.146269999999999989e+01 1.673209999999999553e+01 -1.887429999999999719e+00 3.182630000000000070e+00 3.998619999999999841e+00 -3.176129999999999676e+00 5.191550000000001219e+00 6.471469999999999168e+00 7.396139999999995496e-02 -6.024480000000000945e-01 -5.243739999999998957e-01 7.446489999999994502e-02 -6.041790000000000216e-01 -5.239049999999991769e-01 6.207989999999998787e-01 -1.132830000000000226e+01 -9.268940000000000623e+00 7.276959999999998985e-02 -1.441540000000000177e+01 2.446420000000000172e+01 6.721899999999999409e+01 -7.120170000000030086e-01 5.229690000000000794e+01 2.763370000000000459e+01 -6.079110000000000014e+01 1.237959999999998217e+01 2.314809999999999590e+01 -2.705360000000000298e+01 -1.696700000000000230e+01 2.818400000000000105e+01 1.072940000000000005e+01 1.915919999999999845e+01 -4.767319999999999219e-14 4.373260000000000385e-15 -1.000000000000000000e+01 -4.493180000000000803e-14 -7.553820000000001722e-15 -1.000000000000000000e+01 0.000000000000000000e+00 -3.180549999999999982e-15 -3.180549999999999982e-15 1.998179999999999978e+01 8.718970000000000331e-01 2.396399999999999864e+00 2.400000000000000000e+01 -2.360570000000000096e-14 -2.862499999999999793e-14 2.000000000000000000e+01 -1.669790000000000022e-14 -9.541660000000000512e-14 0.000000000000000000e+00 -3.180549999999999982e-15 -3.180549999999999982e-15 2.000000000000000000e+01 -3.180549999999999982e-15 6.361109999999998163e-15 2.400000000000000000e+01 -1.490889999999999264e-15 -2.862499999999999793e-14 2.000000000000000000e+01 -1.828819999999999926e-14 -6.679160000000000087e-14 0.000000000000000000e+00 -3.180549999999999982e-15 -3.180549999999999982e-15 1.997479999999999833e+01 -1.025649999999999951e+00 -2.819380000000000219e+00 2.400000000000000000e+01 -4.572049999999998237e-15 -2.226390000000001533e-14 2.000000000000000000e+01 -2.305900000000000176e-14 -6.361109999999999741e-14 0.000000000000000000e+00 -3.180549999999999982e-15 -3.180549999999999982e-15 1.978150000000000119e+01 -3.009479999999999933e+00 -8.305149999999999366e+00 2.400000000000000000e+01 3.180550000000000771e-15 -2.544439999999999986e-14 2.000000000000000000e+01 -3.975690000000000513e-15 -4.134720000000000102e-14 1.417490000000000094e+01 -1.265070000000000405e+01 -2.866800000000000281e+01 -3.329930000000000234e+01 2.931309999999999860e+01 -7.272320000000001983e+01 1.226089999999999947e+01 -5.828699999999999193e+01 1.458839999999999293e+01 -2.328170000000000073e+01 -2.500560000000000116e+01 8.816990000000002325e+00 -2.818400000000000105e+01 1.072940000000000005e+01 -1.915919999999999845e+01 3.655149999999999450e-15 1.590280000000000116e-14 1.000000000000000000e+01 -4.351259999999995688e-15 6.361109999999999741e-15 1.000000000000000000e+01 -6.361109999999998952e-15 -6.361109999999998163e-15 0.000000000000000000e+00 -1.998179999999999978e+01 8.718970000000000331e-01 -2.396399999999999864e+00 -2.400000000000000000e+01 -1.590279999999998696e-15 6.361109999999999741e-15 -2.000000000000000000e+01 -3.975690000000000513e-15 1.908329999999999831e-14 -6.361109999999998952e-15 -6.361109999999998163e-15 0.000000000000000000e+00 -2.000000000000000000e+01 9.541660000000000512e-15 -6.361109999999999741e-15 -2.400000000000000000e+01 1.590279999999998302e-15 3.180550000000000771e-15 -2.000000000000000000e+01 -5.168400000000000127e-15 6.361109999999999741e-15 -6.361109999999998952e-15 -6.361109999999998163e-15 0.000000000000000000e+00 -1.997479999999999833e+01 -1.025649999999999951e+00 2.819380000000000219e+00 -2.400000000000000000e+01 -1.590279999999999288e-15 1.272219999999999993e-14 -2.000000000000000000e+01 -8.348959999999998309e-15 9.541660000000003667e-15 -6.361109999999998952e-15 -6.361109999999998163e-15 0.000000000000000000e+00 -1.978150000000000119e+01 -3.009479999999999933e+00 8.305149999999999366e+00 -2.400000000000000000e+01 1.113189999999999773e-14 1.908330000000000147e-14 -2.000000000000000000e+01 0.000000000000000000e+00 9.541659999999997356e-15
3.150000000000000000e+03 0.000000000000000000e+00 0.000000000000000000e+00 0.000000000000000000e+00 0.000000000000000000e+00 0.000000000000000000e+00 2.888439999999999941e+01 1.596359999999999957e+01 -6.643739999999999668e+01 -1.339740000000000109e+01 -6.233979999999999677e+01 -1.364210000000000633e+01 -1.220559999999999867e+00 2.883190000000000097e+01 -1.711749999999999972e+01 7.017349999999998644e+00 2.175609999999999822e+00 2.536570000000000036e+01 9.096229999999998483e+00 -5.576789999999999736e+01 -2.340979999999998284e+00 7.315990000000002880e+00 3.243619999999999948e+01 -3.245470000000000965e+00 -1.155460000000000065e+01 -9.296620000000004325e+00 -1.866710000000000136e+01 -8.845140000000004221e+00 1.143599999999999639e+01 1.674730000000000274e+01 -1.887240000000000251e+00 3.176770000000000316e+00 4.002550000000000274e+00 -3.175630000000000397e+00 5.182529999999998971e+00 6.477110000000000589e+00 7.396139999999995496e-02 -6.024480000000000945e-01 -5.243739999999998957e-01 7.446489999999994502e-02 -6.041790000000002436e-01 -5.239050000000027296e-01 5.594080000000012376e-01 -1.126950000000000074e+01 -9.274779999999999802e+00 3.169749999999997847e-01 -1.425779999999999959e+01 2.445239999999999725e+01 6.704779999999999518e+01 -6.401210000000077116e-01 5.215799999999999415e+01 2.905040000000000333e+01 -6.116869999999998697e+01 1.403410000000000935e+01 2.278409999999999869e+01 -2.669299999999999784e+01 -1.719130000000000180e+01 2.818400000000000105e+01 1.072940000000000005e+01 1.915919999999999845e+01 5.688119999999999824e-15 -4.373259999999999596e-15 -1.000000000000000000e+01 -1.221500000000000147e-14 -5.168400000000000916e-15 -1.000000000000000000e+01 9.541660000000000512e-15 3.180549999999999193e-15 3.180549999999999982e-15 1.998179999999999978e+01 8.718970000000000331e-01 2.396399999999999864e+00 2.400000000000000000e+01 -4.870219999999997321e-15 3.180550000000000771e-15 2.000000000000000000e+01 -1.113190000000000247e-14 -4.452779999999999910e-14 9.541660000000000512e-15 3.180549999999999193e-15 3.180549999999999982e-15 2.000000000000000000e+01 1.590280000000001063e-15 1.590280000000000116e-14 2.400000000000000000e+01 4.075089999999999723e-15 3.180550000000001165e-15 2.000000000000000000e+01 8.746530000000000547e-15 -3.816669999999999125e-14 9.541660000000000512e-15 3.180549999999999193e-15 3.180549999999999982e-15 1.997479999999999833e+01 -1.025649999999999951e+00 -2.819380000000000219e+00 2.400000000000000000e+01 -3.975690000000000513e-15 1.908330000000000462e-14 2.000000000000000000e+01 -5.565969999999997632e-15 -3.180550000000000140e-14 9.541660000000000512e-15 3.180549999999999193e-15 3.180549999999999982e-15 1.978150000000000119e+01 -3.009479999999999933e+00 -8.305149999999999366e+00 2.400000000000000000e+01 -1.232459999999999994e-14 1.590280000000000116e-14 2.000000000000000000e+01 1.590280000000001063e-15 -9.541659999999998934e-15 1.408500000000000263e+01 -1.267350000000000065e+01 -2.864139999999999731e+01 -3.328159999999999741e+01 2.937730000000000175e+01 -7.271610000000001151e+01 1.228190000000000026e+01 -5.727670000000000528e+01 1.454049999999999443e+01 -2.295279999999999987e+01 -2.504360000000000497e+01 8.854890000000001038e+00 -2.818400000000000105e+01 1.072940000000000005e+01 -1.915919999999999845e+01 7.445590000000001144e-15 1.272219999999999993e-14 1.000000000000000000e+01 2.049939999999999859e-14 -6.361109999999998952e-15 1.000000000000000000e+01 -1.577721810442023611e-30 -1.908329999999999831e-14 -4.770830000000000256e-15 -1.998179999999999978e+01 8.718970000000000331e-01 -2.396399999999999864e+00 -2.400000000000000000e+01 -1.272219999999999835e-14 -9.541660000000000512e-15 -2.000000000000000000e+01 -1.391490000000000844e-15 2.226389999999999639e-14 -1.577721810442023611e-30 -1.908329999999999831e-14 -4.770830000000000256e-15 -2.000000000000000000e+01 -3.180549999999999587e-15 -1.272219999999999519e-14 -2.400000000000000000e+01 -7.951389999999999226e-15 3.180550000000000771e-15 -2.000000000000000000e+01 -1.391490000000000450e-15 2.544439999999999986e-14 -1.577721810442023611e-30 -1.908329999999999831e-14 -4.770830000000000256e-15 -1.997479999999999833e+01 -1.025649999999999951e+00 2.819380000000000219e+00 -2.400000000000000000e+01 -2.385420000000000805e-15 6.361110000000002108e-15 -2.000000000000000000e+01 -1.590280000000001063e-15 1.272219999999999835e-14 -1.577721810442023611e-30 -1.908329999999999831e-14 -4.770830000000000256e-15 -1.978150000000000119e+01 -3.009479999999999933e+00 8.305149999999999366e+00 -2.400000000000000000e+01 1.033680000000000183e-14 2.544440000000000301e-14 -2.000000000000000000e+01 -3.180549999999999982e-15 3.180549999999999193e-15
